<mxfile host="drawio-plugin" modified="2022-03-31T21:27:09.449Z" agent="5.0 (Windows NT 6.2; Win64; x64) AppleWebKit/537.36 (KHTML, like Gecko) Chrome/89.0.4389.114 Safari/537.36" etag="iS4wMJLaBQzwIFOazoI3" version="15.5.4" type="embed"><diagram id="C5RBs43oDa-KdzZeNtuy" name="Page-1"><mxGraphModel dx="921" dy="2517" grid="1" gridSize="10" guides="1" tooltips="1" connect="1" arrows="1" fold="1" page="1" pageScale="1" pageWidth="1169" pageHeight="1654" math="0" shadow="0"><root><mxCell id="WIyWlLk6GJQsqaUBKTNV-0"/><mxCell id="WIyWlLk6GJQsqaUBKTNV-1" parent="WIyWlLk6GJQsqaUBKTNV-0"/><mxCell id="45syr0Z3DBqv8a0EdN4Z-90" value="" style="rounded=0;whiteSpace=wrap;html=1;fillColor=none;align=left;" parent="WIyWlLk6GJQsqaUBKTNV-1" vertex="1"><mxGeometry y="-90" width="1540" height="1190" as="geometry"/></mxCell><mxCell id="zkfFHV4jXpPFQw0GAbJ--0" value="&lt;&lt;interface&gt;&gt;&#10;Profile" style="swimlane;fontStyle=0;align=center;verticalAlign=top;childLayout=stackLayout;horizontal=1;startSize=40;horizontalStack=0;resizeParent=1;resizeLast=0;collapsible=1;marginBottom=0;rounded=0;shadow=0;strokeWidth=1;" parent="WIyWlLk6GJQsqaUBKTNV-1" vertex="1"><mxGeometry x="160" y="-50" width="220" height="360" as="geometry"><mxRectangle x="230" y="140" width="160" height="26" as="alternateBounds"/></mxGeometry></mxCell><mxCell id="zkfFHV4jXpPFQw0GAbJ--1" value="Name: String" style="text;align=left;verticalAlign=top;spacingLeft=4;spacingRight=4;overflow=hidden;rotatable=0;points=[[0,0.5],[1,0.5]];portConstraint=eastwest;" parent="zkfFHV4jXpPFQw0GAbJ--0" vertex="1"><mxGeometry y="40" width="220" height="26" as="geometry"/></mxCell><mxCell id="45syr0Z3DBqv8a0EdN4Z-5" value="Description: String" style="text;align=left;verticalAlign=top;spacingLeft=4;spacingRight=4;overflow=hidden;rotatable=0;points=[[0,0.5],[1,0.5]];portConstraint=eastwest;rounded=0;shadow=0;html=0;" parent="zkfFHV4jXpPFQw0GAbJ--0" vertex="1"><mxGeometry y="66" width="220" height="26" as="geometry"/></mxCell><mxCell id="fmXCFGEMliuVrJ14JL0A-0" value="Biography: String" style="text;align=left;verticalAlign=top;spacingLeft=4;spacingRight=4;overflow=hidden;rotatable=0;points=[[0,0.5],[1,0.5]];portConstraint=eastwest;rounded=0;shadow=0;html=0;" parent="zkfFHV4jXpPFQw0GAbJ--0" vertex="1"><mxGeometry y="92" width="220" height="26" as="geometry"/></mxCell><mxCell id="45syr0Z3DBqv8a0EdN4Z-22" value="Tags: &lt;List&gt; Tag" style="text;align=left;verticalAlign=top;spacingLeft=4;spacingRight=4;overflow=hidden;rotatable=0;points=[[0,0.5],[1,0.5]];portConstraint=eastwest;rounded=0;shadow=0;html=0;" parent="zkfFHV4jXpPFQw0GAbJ--0" vertex="1"><mxGeometry y="118" width="220" height="26" as="geometry"/></mxCell><mxCell id="zDuQEX8JCiYGTL9rI8Mv-3" value="pictureReference: String" style="text;align=left;verticalAlign=top;spacingLeft=4;spacingRight=4;overflow=hidden;rotatable=0;points=[[0,0.5],[1,0.5]];portConstraint=eastwest;rounded=0;shadow=0;html=0;" parent="zkfFHV4jXpPFQw0GAbJ--0" vertex="1"><mxGeometry y="144" width="220" height="26" as="geometry"/></mxCell><mxCell id="q_veYpE_iwcE82pZh1WK-1" value="Matches: &lt;List&gt; Match" style="text;align=left;verticalAlign=top;spacingLeft=4;spacingRight=4;overflow=hidden;rotatable=0;points=[[0,0.5],[1,0.5]];portConstraint=eastwest;rounded=0;shadow=0;html=0;" parent="zkfFHV4jXpPFQw0GAbJ--0" vertex="1"><mxGeometry y="170" width="220" height="26" as="geometry"/></mxCell><mxCell id="0" value="CreationDate: String" style="text;align=left;verticalAlign=top;spacingLeft=4;spacingRight=4;overflow=hidden;rotatable=0;points=[[0,0.5],[1,0.5]];portConstraint=eastwest;rounded=0;shadow=0;html=0;" vertex="1" parent="zkfFHV4jXpPFQw0GAbJ--0"><mxGeometry y="196" width="220" height="26" as="geometry"/></mxCell><mxCell id="1" value="OnlineStatus: Enum" style="text;align=left;verticalAlign=top;spacingLeft=4;spacingRight=4;overflow=hidden;rotatable=0;points=[[0,0.5],[1,0.5]];portConstraint=eastwest;rounded=0;shadow=0;html=0;" vertex="1" parent="zkfFHV4jXpPFQw0GAbJ--0"><mxGeometry y="222" width="220" height="26" as="geometry"/></mxCell><mxCell id="zkfFHV4jXpPFQw0GAbJ--4" value="" style="line;html=1;strokeWidth=1;align=left;verticalAlign=middle;spacingTop=-1;spacingLeft=3;spacingRight=3;rotatable=0;labelPosition=right;points=[];portConstraint=eastwest;" parent="zkfFHV4jXpPFQw0GAbJ--0" vertex="1"><mxGeometry y="248" width="220" height="8" as="geometry"/></mxCell><mxCell id="45syr0Z3DBqv8a0EdN4Z-7" value="+ toJsonString(): String" style="text;align=left;verticalAlign=top;spacingLeft=4;spacingRight=4;overflow=hidden;rotatable=0;points=[[0,0.5],[1,0.5]];portConstraint=eastwest;rounded=0;shadow=0;html=0;" parent="zkfFHV4jXpPFQw0GAbJ--0" vertex="1"><mxGeometry y="256" width="220" height="26" as="geometry"/></mxCell><mxCell id="45syr0Z3DBqv8a0EdN4Z-102" value="+ getMatches(): &lt;List&gt; UserProfile" style="text;align=left;verticalAlign=top;spacingLeft=4;spacingRight=4;overflow=hidden;rotatable=0;points=[[0,0.5],[1,0.5]];portConstraint=eastwest;rounded=0;shadow=0;html=0;" parent="zkfFHV4jXpPFQw0GAbJ--0" vertex="1"><mxGeometry y="282" width="220" height="26" as="geometry"/></mxCell><mxCell id="zDuQEX8JCiYGTL9rI8Mv-2" value="+ getMisMatches(): &lt;List&gt; UserProfile" style="text;align=left;verticalAlign=top;spacingLeft=4;spacingRight=4;overflow=hidden;rotatable=0;points=[[0,0.5],[1,0.5]];portConstraint=eastwest;rounded=0;shadow=0;html=0;" parent="zkfFHV4jXpPFQw0GAbJ--0" vertex="1"><mxGeometry y="308" width="220" height="26" as="geometry"/></mxCell><mxCell id="45syr0Z3DBqv8a0EdN4Z-106" value="+ match(user: UserProfile): void" style="text;align=left;verticalAlign=top;spacingLeft=4;spacingRight=4;overflow=hidden;rotatable=0;points=[[0,0.5],[1,0.5]];portConstraint=eastwest;rounded=0;shadow=0;html=0;" parent="zkfFHV4jXpPFQw0GAbJ--0" vertex="1"><mxGeometry y="334" width="220" height="26" as="geometry"/></mxCell><mxCell id="45syr0Z3DBqv8a0EdN4Z-18" style="edgeStyle=orthogonalEdgeStyle;rounded=0;orthogonalLoop=1;jettySize=auto;html=1;exitX=0;exitY=0.5;exitDx=0;exitDy=0;startArrow=none;startFill=0;endArrow=classic;endFill=1;" parent="WIyWlLk6GJQsqaUBKTNV-1" source="45syr0Z3DBqv8a0EdN4Z-12" target="45syr0Z3DBqv8a0EdN4Z-13" edge="1"><mxGeometry relative="1" as="geometry"><Array as="points"><mxPoint x="410" y="507"/><mxPoint x="410" y="810"/></Array></mxGeometry></mxCell><mxCell id="zkfFHV4jXpPFQw0GAbJ--6" value="FlatProfile" style="swimlane;fontStyle=0;align=center;verticalAlign=top;childLayout=stackLayout;horizontal=1;startSize=26;horizontalStack=0;resizeParent=1;resizeLast=0;collapsible=1;marginBottom=0;rounded=0;shadow=0;strokeWidth=1;" parent="WIyWlLk6GJQsqaUBKTNV-1" vertex="1"><mxGeometry x="120" y="390" width="170" height="268" as="geometry"><mxRectangle x="130" y="380" width="160" height="26" as="alternateBounds"/></mxGeometry></mxCell><mxCell id="zkfFHV4jXpPFQw0GAbJ--7" value="Address" style="text;align=left;verticalAlign=top;spacingLeft=4;spacingRight=4;overflow=hidden;rotatable=0;points=[[0,0.5],[1,0.5]];portConstraint=eastwest;" parent="zkfFHV4jXpPFQw0GAbJ--6" vertex="1"><mxGeometry y="26" width="170" height="26" as="geometry"/></mxCell><mxCell id="_LWKyoVRFLzhSd3-RyuI-0" value="Rent: int" style="text;align=left;verticalAlign=top;spacingLeft=4;spacingRight=4;overflow=hidden;rotatable=0;points=[[0,0.5],[1,0.5]];portConstraint=eastwest;rounded=0;shadow=0;html=0;" parent="zkfFHV4jXpPFQw0GAbJ--6" vertex="1"><mxGeometry y="52" width="170" height="26" as="geometry"/></mxCell><mxCell id="ufS0wU04KmSd_7B6GoQx-0" value="Permanent: Boolean" style="text;align=left;verticalAlign=top;spacingLeft=4;spacingRight=4;overflow=hidden;rotatable=0;points=[[0,0.5],[1,0.5]];portConstraint=eastwest;rounded=0;shadow=0;html=0;" parent="zkfFHV4jXpPFQw0GAbJ--6" vertex="1"><mxGeometry y="78" width="170" height="26" as="geometry"/></mxCell><mxCell id="ufS0wU04KmSd_7B6GoQx-1" value="MoveOutDate: String" style="text;align=left;verticalAlign=top;spacingLeft=4;spacingRight=4;overflow=hidden;rotatable=0;points=[[0,0.5],[1,0.5]];portConstraint=eastwest;rounded=0;shadow=0;html=0;" parent="zkfFHV4jXpPFQw0GAbJ--6" vertex="1"><mxGeometry y="104" width="170" height="26" as="geometry"/></mxCell><mxCell id="ufS0wU04KmSd_7B6GoQx-3" value="MoveInDate: String" style="text;align=left;verticalAlign=top;spacingLeft=4;spacingRight=4;overflow=hidden;rotatable=0;points=[[0,0.5],[1,0.5]];portConstraint=eastwest;rounded=0;shadow=0;html=0;" parent="zkfFHV4jXpPFQw0GAbJ--6" vertex="1"><mxGeometry y="130" width="170" height="26" as="geometry"/></mxCell><mxCell id="ufS0wU04KmSd_7B6GoQx-4" value="NumberOfRoommates: int" style="text;align=left;verticalAlign=top;spacingLeft=4;spacingRight=4;overflow=hidden;rotatable=0;points=[[0,0.5],[1,0.5]];portConstraint=eastwest;rounded=0;shadow=0;html=0;" parent="zkfFHV4jXpPFQw0GAbJ--6" vertex="1"><mxGeometry y="156" width="170" height="26" as="geometry"/></mxCell><mxCell id="ufS0wU04KmSd_7B6GoQx-5" value="RoomSize: float" style="text;align=left;verticalAlign=top;spacingLeft=4;spacingRight=4;overflow=hidden;rotatable=0;points=[[0,0.5],[1,0.5]];portConstraint=eastwest;rounded=0;shadow=0;html=0;" parent="zkfFHV4jXpPFQw0GAbJ--6" vertex="1"><mxGeometry y="182" width="170" height="26" as="geometry"/></mxCell><mxCell id="ufS0wU04KmSd_7B6GoQx-6" value="NumberOfBaths: int" style="text;align=left;verticalAlign=top;spacingLeft=4;spacingRight=4;overflow=hidden;rotatable=0;points=[[0,0.5],[1,0.5]];portConstraint=eastwest;rounded=0;shadow=0;html=0;" parent="zkfFHV4jXpPFQw0GAbJ--6" vertex="1"><mxGeometry y="208" width="170" height="26" as="geometry"/></mxCell><mxCell id="zkfFHV4jXpPFQw0GAbJ--8" value="RoomMates: &lt;List&gt; UserProfile" style="text;align=left;verticalAlign=top;spacingLeft=4;spacingRight=4;overflow=hidden;rotatable=0;points=[[0,0.5],[1,0.5]];portConstraint=eastwest;rounded=0;shadow=0;html=0;" parent="zkfFHV4jXpPFQw0GAbJ--6" vertex="1"><mxGeometry y="234" width="170" height="26" as="geometry"/></mxCell><mxCell id="zkfFHV4jXpPFQw0GAbJ--9" value="" style="line;html=1;strokeWidth=1;align=left;verticalAlign=middle;spacingTop=-1;spacingLeft=3;spacingRight=3;rotatable=0;labelPosition=right;points=[];portConstraint=eastwest;" parent="zkfFHV4jXpPFQw0GAbJ--6" vertex="1"><mxGeometry y="260" width="170" height="8" as="geometry"/></mxCell><mxCell id="zkfFHV4jXpPFQw0GAbJ--12" value="" style="endArrow=block;endSize=10;endFill=0;shadow=0;strokeWidth=1;rounded=0;edgeStyle=elbowEdgeStyle;elbow=vertical;dashed=1;entryX=0.502;entryY=1;entryDx=0;entryDy=0;entryPerimeter=0;" parent="WIyWlLk6GJQsqaUBKTNV-1" source="zkfFHV4jXpPFQw0GAbJ--6" target="45syr0Z3DBqv8a0EdN4Z-106" edge="1"><mxGeometry width="160" relative="1" as="geometry"><mxPoint x="200" y="273" as="sourcePoint"/><mxPoint x="305" y="290" as="targetPoint"/><Array as="points"><mxPoint x="305" y="360"/></Array></mxGeometry></mxCell><mxCell id="zkfFHV4jXpPFQw0GAbJ--13" value="UserProfile" style="swimlane;fontStyle=0;align=center;verticalAlign=top;childLayout=stackLayout;horizontal=1;startSize=26;horizontalStack=0;resizeParent=1;resizeLast=0;collapsible=1;marginBottom=0;rounded=0;shadow=0;strokeWidth=1;" parent="WIyWlLk6GJQsqaUBKTNV-1" vertex="1"><mxGeometry x="450" y="390" width="160" height="220" as="geometry"><mxRectangle x="340" y="380" width="170" height="26" as="alternateBounds"/></mxGeometry></mxCell><mxCell id="45syr0Z3DBqv8a0EdN4Z-9" value="Birthday: String" style="text;align=left;verticalAlign=top;spacingLeft=4;spacingRight=4;overflow=hidden;rotatable=0;points=[[0,0.5],[1,0.5]];portConstraint=eastwest;rounded=0;shadow=0;html=0;" parent="zkfFHV4jXpPFQw0GAbJ--13" vertex="1"><mxGeometry y="26" width="160" height="26" as="geometry"/></mxCell><mxCell id="45syr0Z3DBqv8a0EdN4Z-0" value="Email Address: String" style="text;align=left;verticalAlign=top;spacingLeft=4;spacingRight=4;overflow=hidden;rotatable=0;points=[[0,0.5],[1,0.5]];portConstraint=eastwest;rounded=0;shadow=0;html=0;" parent="zkfFHV4jXpPFQw0GAbJ--13" vertex="1"><mxGeometry y="52" width="160" height="26" as="geometry"/></mxCell><mxCell id="zkfFHV4jXpPFQw0GAbJ--2" value="Phone Number: String" style="text;align=left;verticalAlign=top;spacingLeft=4;spacingRight=4;overflow=hidden;rotatable=0;points=[[0,0.5],[1,0.5]];portConstraint=eastwest;rounded=0;shadow=0;html=0;" parent="zkfFHV4jXpPFQw0GAbJ--13" vertex="1"><mxGeometry y="78" width="160" height="26" as="geometry"/></mxCell><mxCell id="45syr0Z3DBqv8a0EdN4Z-12" value="Gender: Enum" style="text;align=left;verticalAlign=top;spacingLeft=4;spacingRight=4;overflow=hidden;rotatable=0;points=[[0,0.5],[1,0.5]];portConstraint=eastwest;rounded=0;shadow=0;html=0;" parent="zkfFHV4jXpPFQw0GAbJ--13" vertex="1"><mxGeometry y="104" width="160" height="26" as="geometry"/></mxCell><mxCell id="45syr0Z3DBqv8a0EdN4Z-19" value="isSearchingRoom: boolean" style="text;align=left;verticalAlign=top;spacingLeft=4;spacingRight=4;overflow=hidden;rotatable=0;points=[[0,0.5],[1,0.5]];portConstraint=eastwest;rounded=0;shadow=0;html=0;" parent="zkfFHV4jXpPFQw0GAbJ--13" vertex="1"><mxGeometry y="130" width="160" height="26" as="geometry"/></mxCell><mxCell id="45syr0Z3DBqv8a0EdN4Z-20" value="isAdvertisingRoom: boolean" style="text;align=left;verticalAlign=top;spacingLeft=4;spacingRight=4;overflow=hidden;rotatable=0;points=[[0,0.5],[1,0.5]];portConstraint=eastwest;rounded=0;shadow=0;html=0;" parent="zkfFHV4jXpPFQw0GAbJ--13" vertex="1"><mxGeometry y="156" width="160" height="26" as="geometry"/></mxCell><mxCell id="45syr0Z3DBqv8a0EdN4Z-107" value="moveInDate: String" style="text;align=left;verticalAlign=top;spacingLeft=4;spacingRight=4;overflow=hidden;rotatable=0;points=[[0,0.5],[1,0.5]];portConstraint=eastwest;rounded=0;shadow=0;html=0;" parent="zkfFHV4jXpPFQw0GAbJ--13" vertex="1"><mxGeometry y="182" width="160" height="26" as="geometry"/></mxCell><mxCell id="zkfFHV4jXpPFQw0GAbJ--15" value="" style="line;html=1;strokeWidth=1;align=left;verticalAlign=middle;spacingTop=-1;spacingLeft=3;spacingRight=3;rotatable=0;labelPosition=right;points=[];portConstraint=eastwest;" parent="zkfFHV4jXpPFQw0GAbJ--13" vertex="1"><mxGeometry y="208" width="160" height="8" as="geometry"/></mxCell><mxCell id="zkfFHV4jXpPFQw0GAbJ--16" value="" style="endArrow=block;endSize=10;endFill=0;shadow=0;strokeWidth=1;rounded=0;edgeStyle=elbowEdgeStyle;elbow=vertical;dashed=1;entryX=0.502;entryY=1;entryDx=0;entryDy=0;entryPerimeter=0;" parent="WIyWlLk6GJQsqaUBKTNV-1" source="zkfFHV4jXpPFQw0GAbJ--13" target="45syr0Z3DBqv8a0EdN4Z-106" edge="1"><mxGeometry width="160" relative="1" as="geometry"><mxPoint x="210" y="443" as="sourcePoint"/><mxPoint x="310" y="300" as="targetPoint"/><Array as="points"><mxPoint x="310" y="360"/></Array></mxGeometry></mxCell><mxCell id="zkfFHV4jXpPFQw0GAbJ--17" value="Address" style="swimlane;fontStyle=0;align=center;verticalAlign=top;childLayout=stackLayout;horizontal=1;startSize=26;horizontalStack=0;resizeParent=1;resizeLast=0;collapsible=1;marginBottom=0;rounded=0;shadow=0;strokeWidth=1;" parent="WIyWlLk6GJQsqaUBKTNV-1" vertex="1"><mxGeometry x="10" y="749.5" width="160" height="170" as="geometry"><mxRectangle x="550" y="140" width="160" height="26" as="alternateBounds"/></mxGeometry></mxCell><mxCell id="zkfFHV4jXpPFQw0GAbJ--18" value="Street: String" style="text;align=left;verticalAlign=top;spacingLeft=4;spacingRight=4;overflow=hidden;rotatable=0;points=[[0,0.5],[1,0.5]];portConstraint=eastwest;" parent="zkfFHV4jXpPFQw0GAbJ--17" vertex="1"><mxGeometry y="26" width="160" height="26" as="geometry"/></mxCell><mxCell id="zkfFHV4jXpPFQw0GAbJ--19" value="City: String" style="text;align=left;verticalAlign=top;spacingLeft=4;spacingRight=4;overflow=hidden;rotatable=0;points=[[0,0.5],[1,0.5]];portConstraint=eastwest;rounded=0;shadow=0;html=0;" parent="zkfFHV4jXpPFQw0GAbJ--17" vertex="1"><mxGeometry y="52" width="160" height="26" as="geometry"/></mxCell><mxCell id="zkfFHV4jXpPFQw0GAbJ--20" value="Province: String" style="text;align=left;verticalAlign=top;spacingLeft=4;spacingRight=4;overflow=hidden;rotatable=0;points=[[0,0.5],[1,0.5]];portConstraint=eastwest;rounded=0;shadow=0;html=0;" parent="zkfFHV4jXpPFQw0GAbJ--17" vertex="1"><mxGeometry y="78" width="160" height="26" as="geometry"/></mxCell><mxCell id="zkfFHV4jXpPFQw0GAbJ--21" value="Postal Code: String" style="text;align=left;verticalAlign=top;spacingLeft=4;spacingRight=4;overflow=hidden;rotatable=0;points=[[0,0.5],[1,0.5]];portConstraint=eastwest;rounded=0;shadow=0;html=0;" parent="zkfFHV4jXpPFQw0GAbJ--17" vertex="1"><mxGeometry y="104" width="160" height="26" as="geometry"/></mxCell><mxCell id="zkfFHV4jXpPFQw0GAbJ--22" value="Country: String" style="text;align=left;verticalAlign=top;spacingLeft=4;spacingRight=4;overflow=hidden;rotatable=0;points=[[0,0.5],[1,0.5]];portConstraint=eastwest;rounded=0;shadow=0;html=0;" parent="zkfFHV4jXpPFQw0GAbJ--17" vertex="1"><mxGeometry y="130" width="160" height="26" as="geometry"/></mxCell><mxCell id="45syr0Z3DBqv8a0EdN4Z-2" style="edgeStyle=orthogonalEdgeStyle;rounded=0;orthogonalLoop=1;jettySize=auto;html=1;exitX=0;exitY=0.5;exitDx=0;exitDy=0;startArrow=diamondThin;startFill=1;endArrow=none;endFill=0;" parent="WIyWlLk6GJQsqaUBKTNV-1" source="zkfFHV4jXpPFQw0GAbJ--7" target="zkfFHV4jXpPFQw0GAbJ--17" edge="1"><mxGeometry relative="1" as="geometry"/></mxCell><mxCell id="45syr0Z3DBqv8a0EdN4Z-13" value="&lt;&lt;enum&gt;&gt;&#10;Gender" style="swimlane;fontStyle=0;align=center;verticalAlign=top;childLayout=stackLayout;horizontal=1;startSize=35;horizontalStack=0;resizeParent=1;resizeLast=0;collapsible=1;marginBottom=0;rounded=0;shadow=0;strokeWidth=1;" parent="WIyWlLk6GJQsqaUBKTNV-1" vertex="1"><mxGeometry x="450" y="749.5" width="160" height="121" as="geometry"><mxRectangle x="340" y="380" width="170" height="26" as="alternateBounds"/></mxGeometry></mxCell><mxCell id="45syr0Z3DBqv8a0EdN4Z-14" value="MALE" style="text;align=left;verticalAlign=top;spacingLeft=4;spacingRight=4;overflow=hidden;rotatable=0;points=[[0,0.5],[1,0.5]];portConstraint=eastwest;rounded=0;shadow=0;html=0;" parent="45syr0Z3DBqv8a0EdN4Z-13" vertex="1"><mxGeometry y="35" width="160" height="26" as="geometry"/></mxCell><mxCell id="45syr0Z3DBqv8a0EdN4Z-15" value="FEMALE" style="text;align=left;verticalAlign=top;spacingLeft=4;spacingRight=4;overflow=hidden;rotatable=0;points=[[0,0.5],[1,0.5]];portConstraint=eastwest;rounded=0;shadow=0;html=0;" parent="45syr0Z3DBqv8a0EdN4Z-13" vertex="1"><mxGeometry y="61" width="160" height="26" as="geometry"/></mxCell><mxCell id="45syr0Z3DBqv8a0EdN4Z-17" value="OTHERS" style="text;align=left;verticalAlign=top;spacingLeft=4;spacingRight=4;overflow=hidden;rotatable=0;points=[[0,0.5],[1,0.5]];portConstraint=eastwest;rounded=0;shadow=0;html=0;" parent="45syr0Z3DBqv8a0EdN4Z-13" vertex="1"><mxGeometry y="87" width="160" height="26" as="geometry"/></mxCell><mxCell id="45syr0Z3DBqv8a0EdN4Z-23" value="&lt;&lt;enum&gt;&gt;&#10;Tag" style="swimlane;fontStyle=0;align=center;verticalAlign=top;childLayout=stackLayout;horizontal=1;startSize=35;horizontalStack=0;resizeParent=1;resizeLast=0;collapsible=1;marginBottom=0;rounded=0;shadow=0;strokeWidth=1;" parent="WIyWlLk6GJQsqaUBKTNV-1" vertex="1"><mxGeometry x="490" y="-50" width="160" height="269" as="geometry"><mxRectangle x="340" y="380" width="170" height="26" as="alternateBounds"/></mxGeometry></mxCell><mxCell id="45syr0Z3DBqv8a0EdN4Z-24" value="COOKING" style="text;align=left;verticalAlign=top;spacingLeft=4;spacingRight=4;overflow=hidden;rotatable=0;points=[[0,0.5],[1,0.5]];portConstraint=eastwest;rounded=0;shadow=0;html=0;" parent="45syr0Z3DBqv8a0EdN4Z-23" vertex="1"><mxGeometry y="35" width="160" height="26" as="geometry"/></mxCell><mxCell id="45syr0Z3DBqv8a0EdN4Z-25" value="SPORTS" style="text;align=left;verticalAlign=top;spacingLeft=4;spacingRight=4;overflow=hidden;rotatable=0;points=[[0,0.5],[1,0.5]];portConstraint=eastwest;rounded=0;shadow=0;html=0;" parent="45syr0Z3DBqv8a0EdN4Z-23" vertex="1"><mxGeometry y="61" width="160" height="26" as="geometry"/></mxCell><mxCell id="45syr0Z3DBqv8a0EdN4Z-26" value="INSTRUMENTS" style="text;align=left;verticalAlign=top;spacingLeft=4;spacingRight=4;overflow=hidden;rotatable=0;points=[[0,0.5],[1,0.5]];portConstraint=eastwest;rounded=0;shadow=0;html=0;" parent="45syr0Z3DBqv8a0EdN4Z-23" vertex="1"><mxGeometry y="87" width="160" height="26" as="geometry"/></mxCell><mxCell id="45syr0Z3DBqv8a0EdN4Z-27" value="CLEANLINESS" style="text;align=left;verticalAlign=top;spacingLeft=4;spacingRight=4;overflow=hidden;rotatable=0;points=[[0,0.5],[1,0.5]];portConstraint=eastwest;rounded=0;shadow=0;html=0;" parent="45syr0Z3DBqv8a0EdN4Z-23" vertex="1"><mxGeometry y="113" width="160" height="26" as="geometry"/></mxCell><mxCell id="45syr0Z3DBqv8a0EdN4Z-28" value="STUDENT" style="text;align=left;verticalAlign=top;spacingLeft=4;spacingRight=4;overflow=hidden;rotatable=0;points=[[0,0.5],[1,0.5]];portConstraint=eastwest;rounded=0;shadow=0;html=0;" parent="45syr0Z3DBqv8a0EdN4Z-23" vertex="1"><mxGeometry y="139" width="160" height="26" as="geometry"/></mxCell><mxCell id="45syr0Z3DBqv8a0EdN4Z-29" value="WORKING" style="text;align=left;verticalAlign=top;spacingLeft=4;spacingRight=4;overflow=hidden;rotatable=0;points=[[0,0.5],[1,0.5]];portConstraint=eastwest;rounded=0;shadow=0;html=0;" parent="45syr0Z3DBqv8a0EdN4Z-23" vertex="1"><mxGeometry y="165" width="160" height="26" as="geometry"/></mxCell><mxCell id="45syr0Z3DBqv8a0EdN4Z-30" value="PETS" style="text;align=left;verticalAlign=top;spacingLeft=4;spacingRight=4;overflow=hidden;rotatable=0;points=[[0,0.5],[1,0.5]];portConstraint=eastwest;rounded=0;shadow=0;html=0;" parent="45syr0Z3DBqv8a0EdN4Z-23" vertex="1"><mxGeometry y="191" width="160" height="26" as="geometry"/></mxCell><mxCell id="45syr0Z3DBqv8a0EdN4Z-33" value="PARTY" style="text;align=left;verticalAlign=top;spacingLeft=4;spacingRight=4;overflow=hidden;rotatable=0;points=[[0,0.5],[1,0.5]];portConstraint=eastwest;rounded=0;shadow=0;html=0;" parent="45syr0Z3DBqv8a0EdN4Z-23" vertex="1"><mxGeometry y="217" width="160" height="26" as="geometry"/></mxCell><mxCell id="45syr0Z3DBqv8a0EdN4Z-32" value="..." style="text;align=left;verticalAlign=top;spacingLeft=4;spacingRight=4;overflow=hidden;rotatable=0;points=[[0,0.5],[1,0.5]];portConstraint=eastwest;rounded=0;shadow=0;html=0;" parent="45syr0Z3DBqv8a0EdN4Z-23" vertex="1"><mxGeometry y="243" width="160" height="26" as="geometry"/></mxCell><mxCell id="45syr0Z3DBqv8a0EdN4Z-31" style="edgeStyle=orthogonalEdgeStyle;rounded=0;orthogonalLoop=1;jettySize=auto;html=1;exitX=1;exitY=0.5;exitDx=0;exitDy=0;startArrow=diamondThin;startFill=0;endArrow=none;endFill=0;" parent="WIyWlLk6GJQsqaUBKTNV-1" source="45syr0Z3DBqv8a0EdN4Z-22" edge="1"><mxGeometry relative="1" as="geometry"><Array as="points"><mxPoint x="500" y="115"/></Array><mxPoint x="500" y="115" as="targetPoint"/></mxGeometry></mxCell><mxCell id="45syr0Z3DBqv8a0EdN4Z-68" style="edgeStyle=orthogonalEdgeStyle;rounded=0;orthogonalLoop=1;jettySize=auto;html=1;exitX=0;exitY=0.75;exitDx=0;exitDy=0;startArrow=none;startFill=0;endArrow=classic;endFill=1;" parent="WIyWlLk6GJQsqaUBKTNV-1" source="45syr0Z3DBqv8a0EdN4Z-41" target="zkfFHV4jXpPFQw0GAbJ--13" edge="1"><mxGeometry relative="1" as="geometry"><Array as="points"><mxPoint x="720" y="828"/><mxPoint x="720" y="601"/></Array></mxGeometry></mxCell><mxCell id="45syr0Z3DBqv8a0EdN4Z-69" style="edgeStyle=orthogonalEdgeStyle;rounded=0;orthogonalLoop=1;jettySize=auto;html=1;exitX=0;exitY=0.5;exitDx=0;exitDy=0;entryX=0.5;entryY=1;entryDx=0;entryDy=0;startArrow=none;startFill=0;endArrow=classic;endFill=1;" parent="WIyWlLk6GJQsqaUBKTNV-1" source="_LWKyoVRFLzhSd3-RyuI-12" target="zkfFHV4jXpPFQw0GAbJ--6" edge="1"><mxGeometry relative="1" as="geometry"><Array as="points"><mxPoint x="205" y="1009"/></Array></mxGeometry></mxCell><mxCell id="lmbKVtaMtVqebQl6M7S7-5" style="edgeStyle=orthogonalEdgeStyle;rounded=0;orthogonalLoop=1;jettySize=auto;html=1;exitX=1;exitY=0.5;exitDx=0;exitDy=0;entryX=1.001;entryY=-0.1;entryDx=0;entryDy=0;entryPerimeter=0;" parent="WIyWlLk6GJQsqaUBKTNV-1" source="_LWKyoVRFLzhSd3-RyuI-2" target="lmbKVtaMtVqebQl6M7S7-2" edge="1"><mxGeometry relative="1" as="geometry"><Array as="points"><mxPoint x="1130" y="749"/><mxPoint x="1130" y="433"/></Array></mxGeometry></mxCell><mxCell id="45syr0Z3DBqv8a0EdN4Z-41" value="ProfileDataService" style="swimlane;fontStyle=0;align=center;verticalAlign=top;childLayout=stackLayout;horizontal=1;startSize=26;horizontalStack=0;resizeParent=1;resizeLast=0;collapsible=1;marginBottom=0;rounded=0;shadow=0;strokeWidth=1;" parent="WIyWlLk6GJQsqaUBKTNV-1" vertex="1"><mxGeometry x="750" y="658" width="320" height="398" as="geometry"><mxRectangle x="340" y="380" width="170" height="26" as="alternateBounds"/></mxGeometry></mxCell><mxCell id="_LWKyoVRFLzhSd3-RyuI-2" value="+ getSearchingUsers(): &lt;List&gt; UserProfile" style="text;align=left;verticalAlign=top;spacingLeft=4;spacingRight=4;overflow=hidden;rotatable=0;points=[[0,0.5],[1,0.5]];portConstraint=eastwest;rounded=0;shadow=0;html=0;" parent="45syr0Z3DBqv8a0EdN4Z-41" vertex="1"><mxGeometry y="26" width="320" height="26" as="geometry"/></mxCell><mxCell id="_LWKyoVRFLzhSd3-RyuI-3" value="+ getFlats(): &lt;List&gt; FlatProfile" style="text;align=left;verticalAlign=top;spacingLeft=4;spacingRight=4;overflow=hidden;rotatable=0;points=[[0,0.5],[1,0.5]];portConstraint=eastwest;rounded=0;shadow=0;html=0;" parent="45syr0Z3DBqv8a0EdN4Z-41" vertex="1"><mxGeometry y="52" width="320" height="26" as="geometry"/></mxCell><mxCell id="_LWKyoVRFLzhSd3-RyuI-13" value="+ getProfileById(ProfileId: string): Profile" style="text;align=left;verticalAlign=top;spacingLeft=4;spacingRight=4;overflow=hidden;rotatable=0;points=[[0,0.5],[1,0.5]];portConstraint=eastwest;rounded=0;shadow=0;html=0;" parent="45syr0Z3DBqv8a0EdN4Z-41" vertex="1"><mxGeometry y="78" width="320" height="26" as="geometry"/></mxCell><mxCell id="ufS0wU04KmSd_7B6GoQx-12" value="+ getProfilesByFilters(FilterList: string): &lt;List&gt; Profile" style="text;align=left;verticalAlign=top;spacingLeft=4;spacingRight=4;overflow=hidden;rotatable=0;points=[[0,0.5],[1,0.5]];portConstraint=eastwest;rounded=0;shadow=0;html=0;" parent="45syr0Z3DBqv8a0EdN4Z-41" vertex="1"><mxGeometry y="104" width="320" height="26" as="geometry"/></mxCell><mxCell id="ufS0wU04KmSd_7B6GoQx-11" value="+ getMatchs(ProfileId: string): &lt;List&gt; Profile" style="text;align=left;verticalAlign=top;spacingLeft=4;spacingRight=4;overflow=hidden;rotatable=0;points=[[0,0.5],[1,0.5]];portConstraint=eastwest;rounded=0;shadow=0;html=0;" parent="45syr0Z3DBqv8a0EdN4Z-41" vertex="1"><mxGeometry y="130" width="320" height="26" as="geometry"/></mxCell><mxCell id="ufS0wU04KmSd_7B6GoQx-15" value="+ match(ProfileId: string, MatchId: string): String" style="text;align=left;verticalAlign=top;spacingLeft=4;spacingRight=4;overflow=hidden;rotatable=0;points=[[0,0.5],[1,0.5]];portConstraint=eastwest;rounded=0;shadow=0;html=0;" parent="45syr0Z3DBqv8a0EdN4Z-41" vertex="1"><mxGeometry y="156" width="320" height="26" as="geometry"/></mxCell><mxCell id="_LWKyoVRFLzhSd3-RyuI-4" value="+ postUser(data: string): UserProfile" style="text;align=left;verticalAlign=top;spacingLeft=4;spacingRight=4;overflow=hidden;rotatable=0;points=[[0,0.5],[1,0.5]];portConstraint=eastwest;rounded=0;shadow=0;html=0;" parent="45syr0Z3DBqv8a0EdN4Z-41" vertex="1"><mxGeometry y="182" width="320" height="26" as="geometry"/></mxCell><mxCell id="_LWKyoVRFLzhSd3-RyuI-5" value="+ postFlat(data: string): FlatProfile" style="text;align=left;verticalAlign=top;spacingLeft=4;spacingRight=4;overflow=hidden;rotatable=0;points=[[0,0.5],[1,0.5]];portConstraint=eastwest;rounded=0;shadow=0;html=0;" parent="45syr0Z3DBqv8a0EdN4Z-41" vertex="1"><mxGeometry y="208" width="320" height="26" as="geometry"/></mxCell><mxCell id="_LWKyoVRFLzhSd3-RyuI-8" value="+ updateUser(ProfileId: string, update: string): UserProfile" style="text;align=left;verticalAlign=top;spacingLeft=4;spacingRight=4;overflow=hidden;rotatable=0;points=[[0,0.5],[1,0.5]];portConstraint=eastwest;rounded=0;shadow=0;html=0;" parent="45syr0Z3DBqv8a0EdN4Z-41" vertex="1"><mxGeometry y="234" width="320" height="26" as="geometry"/></mxCell><mxCell id="_LWKyoVRFLzhSd3-RyuI-7" value="+ updateFlat(ProfileId: string, update: string): FlatProfile" style="text;align=left;verticalAlign=top;spacingLeft=4;spacingRight=4;overflow=hidden;rotatable=0;points=[[0,0.5],[1,0.5]];portConstraint=eastwest;rounded=0;shadow=0;html=0;" parent="45syr0Z3DBqv8a0EdN4Z-41" vertex="1"><mxGeometry y="260" width="320" height="26" as="geometry"/></mxCell><mxCell id="_LWKyoVRFLzhSd3-RyuI-9" value="+ deleteUser(ProfileId: string): String" style="text;align=left;verticalAlign=top;spacingLeft=4;spacingRight=4;overflow=hidden;rotatable=0;points=[[0,0.5],[1,0.5]];portConstraint=eastwest;rounded=0;shadow=0;html=0;" parent="45syr0Z3DBqv8a0EdN4Z-41" vertex="1"><mxGeometry y="286" width="320" height="26" as="geometry"/></mxCell><mxCell id="_LWKyoVRFLzhSd3-RyuI-10" value="+ deleteFlat(ProfileId: string): String" style="text;align=left;verticalAlign=top;spacingLeft=4;spacingRight=4;overflow=hidden;rotatable=0;points=[[0,0.5],[1,0.5]];portConstraint=eastwest;rounded=0;shadow=0;html=0;" parent="45syr0Z3DBqv8a0EdN4Z-41" vertex="1"><mxGeometry y="312" width="320" height="26" as="geometry"/></mxCell><mxCell id="_LWKyoVRFLzhSd3-RyuI-11" value="+ login(email: string, password: string): Profile" style="text;align=left;verticalAlign=top;spacingLeft=4;spacingRight=4;overflow=hidden;rotatable=0;points=[[0,0.5],[1,0.5]];portConstraint=eastwest;rounded=0;shadow=0;html=0;" parent="45syr0Z3DBqv8a0EdN4Z-41" vertex="1"><mxGeometry y="338" width="320" height="26" as="geometry"/></mxCell><mxCell id="_LWKyoVRFLzhSd3-RyuI-12" value="+ logout(): String " style="text;align=left;verticalAlign=top;spacingLeft=4;spacingRight=4;overflow=hidden;rotatable=0;points=[[0,0.5],[1,0.5]];portConstraint=eastwest;rounded=0;shadow=0;html=0;" parent="45syr0Z3DBqv8a0EdN4Z-41" vertex="1"><mxGeometry y="364" width="320" height="26" as="geometry"/></mxCell><mxCell id="45syr0Z3DBqv8a0EdN4Z-46" value="" style="line;html=1;strokeWidth=1;align=left;verticalAlign=middle;spacingTop=-1;spacingLeft=3;spacingRight=3;rotatable=0;labelPosition=right;points=[];portConstraint=eastwest;" parent="45syr0Z3DBqv8a0EdN4Z-41" vertex="1"><mxGeometry y="390" width="320" height="8" as="geometry"/></mxCell><mxCell id="45syr0Z3DBqv8a0EdN4Z-52" value="DataAPI" style="swimlane;fontStyle=0;align=center;verticalAlign=top;childLayout=stackLayout;horizontal=1;startSize=26;horizontalStack=0;resizeParent=1;resizeLast=0;collapsible=1;marginBottom=0;rounded=0;shadow=0;strokeWidth=1;" parent="WIyWlLk6GJQsqaUBKTNV-1" vertex="1"><mxGeometry x="1250" y="780" width="160" height="60" as="geometry"><mxRectangle x="340" y="380" width="170" height="26" as="alternateBounds"/></mxGeometry></mxCell><mxCell id="_LWKyoVRFLzhSd3-RyuI-6" value="+ Init(): void" style="text;align=left;verticalAlign=top;spacingLeft=4;spacingRight=4;overflow=hidden;rotatable=0;points=[[0,0.5],[1,0.5]];portConstraint=eastwest;rounded=0;shadow=0;html=0;" parent="45syr0Z3DBqv8a0EdN4Z-52" vertex="1"><mxGeometry y="26" width="160" height="26" as="geometry"/></mxCell><mxCell id="45syr0Z3DBqv8a0EdN4Z-57" value="" style="line;html=1;strokeWidth=1;align=left;verticalAlign=middle;spacingTop=-1;spacingLeft=3;spacingRight=3;rotatable=0;labelPosition=right;points=[];portConstraint=eastwest;" parent="45syr0Z3DBqv8a0EdN4Z-52" vertex="1"><mxGeometry y="52" width="160" height="8" as="geometry"/></mxCell><mxCell id="45syr0Z3DBqv8a0EdN4Z-74" style="edgeStyle=orthogonalEdgeStyle;rounded=0;orthogonalLoop=1;jettySize=auto;html=1;startArrow=none;startFill=0;endArrow=classic;endFill=1;dashed=1;exitX=0.25;exitY=0;exitDx=0;exitDy=0;" parent="WIyWlLk6GJQsqaUBKTNV-1" source="45syr0Z3DBqv8a0EdN4Z-63" edge="1"><mxGeometry relative="1" as="geometry"><mxPoint x="160" y="390" as="targetPoint"/><Array as="points"><mxPoint x="828" y="330"/><mxPoint x="160" y="330"/><mxPoint x="160" y="390"/></Array><mxPoint x="740" y="410" as="sourcePoint"/></mxGeometry></mxCell><mxCell id="45syr0Z3DBqv8a0EdN4Z-63" value="Validator" style="swimlane;fontStyle=0;align=center;verticalAlign=top;childLayout=stackLayout;horizontal=1;startSize=26;horizontalStack=0;resizeParent=1;resizeLast=0;collapsible=1;marginBottom=0;rounded=0;shadow=0;strokeWidth=1;" parent="WIyWlLk6GJQsqaUBKTNV-1" vertex="1"><mxGeometry x="750" y="350" width="310" height="190" as="geometry"><mxRectangle x="340" y="380" width="170" height="26" as="alternateBounds"/></mxGeometry></mxCell><mxCell id="45syr0Z3DBqv8a0EdN4Z-65" value="" style="line;html=1;strokeWidth=1;align=left;verticalAlign=middle;spacingTop=-1;spacingLeft=3;spacingRight=3;rotatable=0;labelPosition=right;points=[];portConstraint=eastwest;" parent="45syr0Z3DBqv8a0EdN4Z-63" vertex="1"><mxGeometry y="26" width="310" height="8" as="geometry"/></mxCell><mxCell id="45syr0Z3DBqv8a0EdN4Z-66" value="+ validateUser(data: string, Request: string): boolean" style="text;align=left;verticalAlign=top;spacingLeft=4;spacingRight=4;overflow=hidden;rotatable=0;points=[[0,0.5],[1,0.5]];portConstraint=eastwest;rounded=0;shadow=0;html=0;fontStyle=4" parent="45syr0Z3DBqv8a0EdN4Z-63" vertex="1"><mxGeometry y="34" width="310" height="26" as="geometry"/></mxCell><mxCell id="45syr0Z3DBqv8a0EdN4Z-67" value="+ validateFlat(data: string, Request: string): boolean" style="text;align=left;verticalAlign=top;spacingLeft=4;spacingRight=4;overflow=hidden;rotatable=0;points=[[0,0.5],[1,0.5]];portConstraint=eastwest;rounded=0;shadow=0;html=0;fontStyle=4" parent="45syr0Z3DBqv8a0EdN4Z-63" vertex="1"><mxGeometry y="60" width="310" height="26" as="geometry"/></mxCell><mxCell id="lmbKVtaMtVqebQl6M7S7-2" value="- validateField(Field: string): boolean" style="text;align=left;verticalAlign=top;spacingLeft=4;spacingRight=4;overflow=hidden;rotatable=0;points=[[0,0.5],[1,0.5]];portConstraint=eastwest;rounded=0;shadow=0;html=0;fontStyle=4" parent="45syr0Z3DBqv8a0EdN4Z-63" vertex="1"><mxGeometry y="86" width="310" height="26" as="geometry"/></mxCell><mxCell id="lmbKVtaMtVqebQl6M7S7-4" value="- validateField(Field: string, Value: string): boolean" style="text;align=left;verticalAlign=top;spacingLeft=4;spacingRight=4;overflow=hidden;rotatable=0;points=[[0,0.5],[1,0.5]];portConstraint=eastwest;rounded=0;shadow=0;html=0;fontStyle=4" parent="45syr0Z3DBqv8a0EdN4Z-63" vertex="1"><mxGeometry y="112" width="310" height="26" as="geometry"/></mxCell><mxCell id="lmbKVtaMtVqebQl6M7S7-3" value="- fieldNotEmpty(Value: string): boolean" style="text;align=left;verticalAlign=top;spacingLeft=4;spacingRight=4;overflow=hidden;rotatable=0;points=[[0,0.5],[1,0.5]];portConstraint=eastwest;rounded=0;shadow=0;html=0;fontStyle=4" parent="45syr0Z3DBqv8a0EdN4Z-63" vertex="1"><mxGeometry y="138" width="310" height="26" as="geometry"/></mxCell><mxCell id="ufS0wU04KmSd_7B6GoQx-2" value="- dateValid(Value: string): boolean" style="text;align=left;verticalAlign=top;spacingLeft=4;spacingRight=4;overflow=hidden;rotatable=0;points=[[0,0.5],[1,0.5]];portConstraint=eastwest;rounded=0;shadow=0;html=0;fontStyle=4" parent="45syr0Z3DBqv8a0EdN4Z-63" vertex="1"><mxGeometry y="164" width="310" height="26" as="geometry"/></mxCell><mxCell id="45syr0Z3DBqv8a0EdN4Z-73" style="edgeStyle=orthogonalEdgeStyle;rounded=0;orthogonalLoop=1;jettySize=auto;html=1;exitX=0;exitY=0.5;exitDx=0;exitDy=0;entryX=1;entryY=0.5;entryDx=0;entryDy=0;startArrow=none;startFill=0;endArrow=classic;endFill=1;dashed=1;" parent="WIyWlLk6GJQsqaUBKTNV-1" source="45syr0Z3DBqv8a0EdN4Z-67" target="zkfFHV4jXpPFQw0GAbJ--2" edge="1"><mxGeometry relative="1" as="geometry"><Array as="points"><mxPoint x="750" y="481"/></Array></mxGeometry></mxCell><mxCell id="45syr0Z3DBqv8a0EdN4Z-91" value="&lt;b&gt;roomEight DataService&lt;/b&gt;" style="rounded=0;whiteSpace=wrap;html=1;fillColor=none;" parent="WIyWlLk6GJQsqaUBKTNV-1" vertex="1"><mxGeometry y="-90" width="120" height="60" as="geometry"/></mxCell><mxCell id="45syr0Z3DBqv8a0EdN4Z-105" style="edgeStyle=orthogonalEdgeStyle;rounded=0;orthogonalLoop=1;jettySize=auto;html=1;exitX=1;exitY=0.5;exitDx=0;exitDy=0;entryX=0;entryY=0.5;entryDx=0;entryDy=0;startArrow=diamondThin;startFill=0;endArrow=none;endFill=0;targetPerimeterSpacing=0;sourcePerimeterSpacing=0;endSize=0;startSize=14;" parent="WIyWlLk6GJQsqaUBKTNV-1" source="zkfFHV4jXpPFQw0GAbJ--8" target="45syr0Z3DBqv8a0EdN4Z-9" edge="1"><mxGeometry relative="1" as="geometry"><Array as="points"/></mxGeometry></mxCell><mxCell id="q_veYpE_iwcE82pZh1WK-6" style="edgeStyle=orthogonalEdgeStyle;rounded=0;orthogonalLoop=1;jettySize=auto;html=1;exitX=0;exitY=0.5;exitDx=0;exitDy=0;entryX=1;entryY=0.5;entryDx=0;entryDy=0;endArrow=diamondThin;endFill=0;startArrow=none;startFill=0;" parent="WIyWlLk6GJQsqaUBKTNV-1" source="q_veYpE_iwcE82pZh1WK-4" target="q_veYpE_iwcE82pZh1WK-1" edge="1"><mxGeometry relative="1" as="geometry"><Array as="points"><mxPoint x="700" y="76"/><mxPoint x="700" y="240"/><mxPoint x="450" y="240"/><mxPoint x="450" y="133"/></Array></mxGeometry></mxCell><mxCell id="q_veYpE_iwcE82pZh1WK-2" value="Match" style="swimlane;fontStyle=0;align=center;verticalAlign=top;childLayout=stackLayout;horizontal=1;startSize=26;horizontalStack=0;resizeParent=1;resizeLast=0;collapsible=1;marginBottom=0;rounded=0;shadow=0;strokeWidth=1;" parent="WIyWlLk6GJQsqaUBKTNV-1" vertex="1"><mxGeometry x="730" y="11" width="170" height="118" as="geometry"><mxRectangle x="130" y="380" width="160" height="26" as="alternateBounds"/></mxGeometry></mxCell><mxCell id="q_veYpE_iwcE82pZh1WK-3" value="likes: &lt;List&gt; UserProfile" style="text;align=left;verticalAlign=top;spacingLeft=4;spacingRight=4;overflow=hidden;rotatable=0;points=[[0,0.5],[1,0.5]];portConstraint=eastwest;" parent="q_veYpE_iwcE82pZh1WK-2" vertex="1"><mxGeometry y="26" width="170" height="26" as="geometry"/></mxCell><mxCell id="q_veYpE_iwcE82pZh1WK-4" value="matchedUser: UserProfile" style="text;align=left;verticalAlign=top;spacingLeft=4;spacingRight=4;overflow=hidden;rotatable=0;points=[[0,0.5],[1,0.5]];portConstraint=eastwest;rounded=0;shadow=0;html=0;" parent="q_veYpE_iwcE82pZh1WK-2" vertex="1"><mxGeometry y="52" width="170" height="26" as="geometry"/></mxCell><mxCell id="q_veYpE_iwcE82pZh1WK-5" value="" style="line;html=1;strokeWidth=1;align=left;verticalAlign=middle;spacingTop=-1;spacingLeft=3;spacingRight=3;rotatable=0;labelPosition=right;points=[];portConstraint=eastwest;" parent="q_veYpE_iwcE82pZh1WK-2" vertex="1"><mxGeometry y="78" width="170" height="8" as="geometry"/></mxCell><mxCell id="q_veYpE_iwcE82pZh1WK-14" value="+ getNumberOfVotes(): int" style="text;align=left;verticalAlign=top;spacingLeft=4;spacingRight=4;overflow=hidden;rotatable=0;points=[[0,0.5],[1,0.5]];portConstraint=eastwest;rounded=0;shadow=0;html=0;" parent="q_veYpE_iwcE82pZh1WK-2" vertex="1"><mxGeometry y="86" width="170" height="26" as="geometry"/></mxCell><mxCell id="q_veYpE_iwcE82pZh1WK-8" value="1" style="text;html=1;strokeColor=none;fillColor=none;align=center;verticalAlign=middle;whiteSpace=wrap;rounded=0;" parent="WIyWlLk6GJQsqaUBKTNV-1" vertex="1"><mxGeometry x="410" y="80" width="20" height="30" as="geometry"/></mxCell><mxCell id="q_veYpE_iwcE82pZh1WK-9" value="3" style="text;html=1;strokeColor=none;fillColor=none;align=center;verticalAlign=middle;whiteSpace=wrap;rounded=0;" parent="WIyWlLk6GJQsqaUBKTNV-1" vertex="1"><mxGeometry x="470" y="80" width="20" height="30" as="geometry"/></mxCell><mxCell id="q_veYpE_iwcE82pZh1WK-10" value="1" style="text;html=1;strokeColor=none;fillColor=none;align=center;verticalAlign=middle;whiteSpace=wrap;rounded=0;" parent="WIyWlLk6GJQsqaUBKTNV-1" vertex="1"><mxGeometry x="290" y="600" width="20" height="30" as="geometry"/></mxCell><mxCell id="q_veYpE_iwcE82pZh1WK-11" value="n" style="text;html=1;strokeColor=none;fillColor=none;align=center;verticalAlign=middle;whiteSpace=wrap;rounded=0;" parent="WIyWlLk6GJQsqaUBKTNV-1" vertex="1"><mxGeometry x="340" y="420" width="20" height="30" as="geometry"/></mxCell><mxCell id="q_veYpE_iwcE82pZh1WK-12" value="1" style="text;html=1;strokeColor=none;fillColor=none;align=center;verticalAlign=middle;whiteSpace=wrap;rounded=0;" parent="WIyWlLk6GJQsqaUBKTNV-1" vertex="1"><mxGeometry x="410" y="136" width="20" height="30" as="geometry"/></mxCell><mxCell id="q_veYpE_iwcE82pZh1WK-13" value="n" style="text;html=1;strokeColor=none;fillColor=none;align=center;verticalAlign=middle;whiteSpace=wrap;rounded=0;" parent="WIyWlLk6GJQsqaUBKTNV-1" vertex="1"><mxGeometry x="710" y="40" width="20" height="30" as="geometry"/></mxCell><mxCell id="ufS0wU04KmSd_7B6GoQx-14" style="edgeStyle=orthogonalEdgeStyle;rounded=0;orthogonalLoop=1;jettySize=auto;html=1;exitX=0;exitY=0.5;exitDx=0;exitDy=0;startArrow=none;startFill=0;endArrow=classic;endFill=1;" parent="WIyWlLk6GJQsqaUBKTNV-1" source="_LWKyoVRFLzhSd3-RyuI-6" edge="1"><mxGeometry relative="1" as="geometry"><mxPoint x="1070" y="820" as="targetPoint"/><Array as="points"><mxPoint x="1160" y="819"/><mxPoint x="1070" y="820"/></Array></mxGeometry></mxCell><mxCell id="2" value="&lt;&lt;enum&gt;&gt;&#10;Status" style="swimlane;fontStyle=0;align=center;verticalAlign=top;childLayout=stackLayout;horizontal=1;startSize=35;horizontalStack=0;resizeParent=1;resizeLast=0;collapsible=1;marginBottom=0;rounded=0;shadow=0;strokeWidth=1;" vertex="1" parent="WIyWlLk6GJQsqaUBKTNV-1"><mxGeometry x="735" y="210" width="160" height="94" as="geometry"><mxRectangle x="340" y="380" width="170" height="26" as="alternateBounds"/></mxGeometry></mxCell><mxCell id="3" value="Online" style="text;align=left;verticalAlign=top;spacingLeft=4;spacingRight=4;overflow=hidden;rotatable=0;points=[[0,0.5],[1,0.5]];portConstraint=eastwest;rounded=0;shadow=0;html=0;" vertex="1" parent="2"><mxGeometry y="35" width="160" height="26" as="geometry"/></mxCell><mxCell id="4" value="Offline" style="text;align=left;verticalAlign=top;spacingLeft=4;spacingRight=4;overflow=hidden;rotatable=0;points=[[0,0.5],[1,0.5]];portConstraint=eastwest;rounded=0;shadow=0;html=0;" vertex="1" parent="2"><mxGeometry y="61" width="160" height="26" as="geometry"/></mxCell><mxCell id="6" style="edgeStyle=orthogonalEdgeStyle;rounded=0;orthogonalLoop=1;jettySize=auto;html=1;exitX=1;exitY=0.5;exitDx=0;exitDy=0;entryX=0;entryY=0.75;entryDx=0;entryDy=0;" edge="1" parent="WIyWlLk6GJQsqaUBKTNV-1" source="1" target="2"><mxGeometry relative="1" as="geometry"><Array as="points"><mxPoint x="420" y="185"/><mxPoint x="420" y="281"/></Array></mxGeometry></mxCell></root></mxGraphModel></diagram></mxfile>